<svg width="36" height="26" viewBox="0 0 36 26" fill="none" xmlns="http://www.w3.org/2000/svg">
<path d="M20.5871 7.6782C20.1452 7.46173 20.0105 7.7337 19.8779 8.05563C18.8363 10.59 19.995 13.3298 22.6924 14.5975C23.1343 14.8029 23.3331 15.0416 23.3331 15.4856C23.3331 16.3215 23.3519 17.1597 23.4237 17.9922C23.4403 18.1954 23.6523 18.5029 23.8445 18.5573C26.2493 19.2345 28.7048 17.6603 28.802 15.4012C28.9014 12.959 29.0395 10.5045 29.0395 8.0623C29.0395 7.01879 29.3333 6.23061 30.2314 5.57565C30.8466 5.12383 31.3658 4.56878 31.9844 4.01372C31.6442 3.90271 31.421 3.80835 31.188 3.75173C30.7169 3.61625 30.2371 3.51351 29.752 3.44423C29.2339 3.39095 29.1466 2.92248 29.1632 2.47844C29.1627 2.47216 29.1627 2.46584 29.1632 2.45957L30.1817 1.36722C28.3948 0.462606 26.4208 -0.00595065 24.42 -0.000440235C20.85 -0.000440235 17.8042 1.27249 15.2828 3.81834C13.9782 5.09462 12.9612 6.6372 12.3003 8.34204L11.7127 5.44021L11.7502 5.70886L11.7138 5.51237L11.2222 5.49461C7.72727 5.36806 4.09091 5.26371 0.484375 5.16157C0.88866 5.9653 1.31025 6.74829 1.74915 7.51057C4.79565 7.59494 7.84988 7.68486 10.8069 7.78921C10.8964 8.24213 10.987 8.68396 11.0786 9.12134C8.28509 9.02365 5.41312 8.93928 2.54778 8.85935C3.0419 9.66529 3.55149 10.4516 4.07655 11.2183C6.58842 11.2894 9.09366 11.366 11.5337 11.4526L11.5569 11.5636C11.5088 12.0405 11.4849 12.5196 11.4851 12.999C11.4851 13.0212 11.4851 13.0434 11.4851 13.0656C9.43056 12.9945 7.33624 12.9301 5.23528 12.8702C5.8163 13.6754 6.408 14.4643 7.01038 15.2369C8.58223 15.2847 10.1452 15.3335 11.6851 15.3857C12.1328 17.9634 13.332 20.2284 15.2828 22.1807C17.8042 24.7265 20.85 25.9995 24.42 25.9995C26.4208 26.005 28.3948 25.5364 30.1817 24.6318V21.9342C28.473 23.0687 26.4679 23.6683 24.42 23.6571C23.99 23.6558 23.5604 23.6306 23.1332 23.5816C23.0514 23.5506 22.9708 23.5184 22.8891 23.4851C18.5093 21.7011 15.7334 16.9065 16.7419 12.6659C17.7504 8.4253 20.6313 5.7355 25.285 4.70421C26.5133 4.43223 27.8001 4.32788 29.0627 4.6376L29.3344 4.96286C29.0616 5.10496 28.7744 5.2304 28.517 5.39359C27.8885 5.7899 27.7438 6.34828 27.725 7.03322C27.6643 9.78629 27.5461 12.5383 27.4433 15.2902C27.4025 16.3892 26.5 17.3029 25.3601 17.4449C24.9293 17.4982 24.7293 17.3872 24.7293 16.9709C24.7293 16.135 24.6697 15.2991 24.6697 14.4632C24.6697 14.0724 24.4941 13.8793 24.0898 13.7605C21.4951 12.999 20.2932 10.8354 21.188 8.48414C21.4166 7.88357 20.935 7.84582 20.5871 7.6782ZM17.1407 20.7342C17.07 20.6665 16.9982 20.5999 16.9275 20.5288C14.9628 18.5536 13.9296 16.1953 13.828 13.4541C13.9683 13.4541 14.1075 13.4541 14.2477 13.4541C15.2043 13.4541 15.2043 13.4541 15.2043 14.3167C15.1867 16.7678 15.8815 18.9636 17.1407 20.7342ZM26.4194 3.30547C20.9505 3.91381 17.0048 6.96883 15.5843 11.7035C15.423 12.2274 15.423 12.2274 14.3693 12.2274C14.2124 12.2274 14.0544 12.2163 13.8943 12.2274H13.8413C14.0084 9.62311 15.0357 7.37143 16.9231 5.4724C18.9975 3.3891 21.4954 2.34707 24.4167 2.34633C25.9201 2.34633 26.7463 1.87787 27.7504 2.04882C27.7968 3.1445 27.7372 3.15227 26.4216 3.29881L26.4194 3.30547Z" fill="#ED1C24"/>
</svg>
